<svg id="visual" viewBox="0 0 960 300" width="960" height="300" xmlns="http://www.w3.org/2000/svg" xmlns:xlink="http://www.w3.org/1999/xlink" version="1.1"><path d="M0 79L10.7 75C21.3 71 42.7 63 64 56C85.3 49 106.7 43 128 46.5C149.3 50 170.7 63 192 82.5C213.3 102 234.7 128 256 124.5C277.3 121 298.7 88 320 72.5C341.3 57 362.7 59 384 56.5C405.3 54 426.7 47 448 48.5C469.3 50 490.7 60 512 75C533.3 90 554.7 110 576 111.5C597.3 113 618.7 96 640 91C661.3 86 682.7 93 704 95C725.3 97 746.7 94 768 84.5C789.3 75 810.7 59 832 62.5C853.3 66 874.7 89 896 103C917.3 117 938.7 122 949.3 124.5L960 127L960 0L949.3 0C938.7 0 917.3 0 896 0C874.7 0 853.3 0 832 0C810.7 0 789.3 0 768 0C746.7 0 725.3 0 704 0C682.7 0 661.3 0 640 0C618.7 0 597.3 0 576 0C554.7 0 533.3 0 512 0C490.7 0 469.3 0 448 0C426.7 0 405.3 0 384 0C362.7 0 341.3 0 320 0C298.7 0 277.3 0 256 0C234.7 0 213.3 0 192 0C170.7 0 149.3 0 128 0C106.7 0 85.3 0 64 0C42.7 0 21.3 0 10.7 0L0 0Z" fill="#000000"></path><path d="M0 100L10.7 98.5C21.3 97 42.7 94 64 85.5C85.3 77 106.7 63 128 66C149.3 69 170.7 89 192 112.5C213.3 136 234.7 163 256 163C277.3 163 298.7 136 320 118.5C341.3 101 362.7 93 384 87C405.3 81 426.7 77 448 82.5C469.3 88 490.7 103 512 115C533.3 127 554.7 136 576 134C597.3 132 618.7 119 640 116C661.3 113 682.7 120 704 123C725.3 126 746.7 125 768 114.5C789.3 104 810.7 84 832 84C853.3 84 874.7 104 896 124.5C917.3 145 938.7 166 949.3 176.5L960 187L960 125L949.3 122.5C938.7 120 917.3 115 896 101C874.7 87 853.3 64 832 60.5C810.7 57 789.3 73 768 82.5C746.7 92 725.3 95 704 93C682.7 91 661.3 84 640 89C618.7 94 597.3 111 576 109.5C554.7 108 533.3 88 512 73C490.7 58 469.3 48 448 46.5C426.7 45 405.3 52 384 54.5C362.7 57 341.3 55 320 70.5C298.7 86 277.3 119 256 122.5C234.7 126 213.3 100 192 80.5C170.7 61 149.3 48 128 44.5C106.7 41 85.3 47 64 54C42.7 61 21.3 69 10.7 73L0 77Z" fill="#00004e"></path><path d="M0 163L10.7 154C21.3 145 42.7 127 64 116.5C85.3 106 106.7 103 128 114C149.3 125 170.7 150 192 169C213.3 188 234.7 201 256 193.5C277.3 186 298.7 158 320 148.5C341.3 139 362.7 148 384 148.5C405.3 149 426.7 141 448 138.5C469.3 136 490.7 139 512 147.5C533.3 156 554.7 170 576 177.5C597.3 185 618.7 186 640 181.5C661.3 177 682.7 167 704 161C725.3 155 746.7 153 768 142C789.3 131 810.7 111 832 113.5C853.3 116 874.7 141 896 161C917.3 181 938.7 196 949.3 203.5L960 211L960 185L949.3 174.5C938.7 164 917.3 143 896 122.5C874.7 102 853.3 82 832 82C810.7 82 789.3 102 768 112.5C746.7 123 725.3 124 704 121C682.7 118 661.3 111 640 114C618.7 117 597.3 130 576 132C554.7 134 533.3 125 512 113C490.7 101 469.3 86 448 80.5C426.7 75 405.3 79 384 85C362.7 91 341.3 99 320 116.5C298.7 134 277.3 161 256 161C234.7 161 213.3 134 192 110.5C170.7 87 149.3 67 128 64C106.7 61 85.3 75 64 83.5C42.7 92 21.3 95 10.7 96.5L0 98Z" fill="#000053"></path><path d="M0 193L10.7 184.5C21.3 176 42.7 159 64 146.5C85.3 134 106.7 126 128 136C149.3 146 170.7 174 192 191.5C213.3 209 234.7 216 256 208.5C277.3 201 298.7 179 320 169.5C341.3 160 362.7 163 384 163C405.3 163 426.7 160 448 160C469.3 160 490.7 163 512 173.5C533.3 184 554.7 202 576 207.5C597.3 213 618.7 206 640 201.5C661.3 197 682.7 195 704 189C725.3 183 746.7 173 768 158.5C789.3 144 810.7 125 832 131C853.3 137 874.7 168 896 187C917.3 206 938.7 213 949.3 216.5L960 220L960 209L949.3 201.5C938.7 194 917.3 179 896 159C874.7 139 853.3 114 832 111.5C810.7 109 789.3 129 768 140C746.7 151 725.3 153 704 159C682.7 165 661.3 175 640 179.5C618.7 184 597.3 183 576 175.5C554.7 168 533.3 154 512 145.5C490.7 137 469.3 134 448 136.5C426.7 139 405.3 147 384 146.5C362.7 146 341.3 137 320 146.5C298.7 156 277.3 184 256 191.5C234.7 199 213.3 186 192 167C170.7 148 149.3 123 128 112C106.7 101 85.3 104 64 114.5C42.7 125 21.3 143 10.7 152L0 161Z" fill="#000058"></path><path d="M0 226L10.7 217C21.3 208 42.7 190 64 177C85.3 164 106.7 156 128 163.5C149.3 171 170.7 194 192 209C213.3 224 234.7 231 256 223C277.3 215 298.7 192 320 187C341.3 182 362.7 195 384 195C405.3 195 426.7 182 448 181C469.3 180 490.7 191 512 203C533.3 215 554.7 228 576 231.5C597.3 235 618.7 229 640 224C661.3 219 682.7 215 704 207C725.3 199 746.7 187 768 174.5C789.3 162 810.7 149 832 156C853.3 163 874.7 190 896 206.5C917.3 223 938.7 229 949.3 232L960 235L960 218L949.3 214.5C938.7 211 917.3 204 896 185C874.7 166 853.3 135 832 129C810.7 123 789.3 142 768 156.5C746.7 171 725.3 181 704 187C682.7 193 661.3 195 640 199.5C618.7 204 597.3 211 576 205.5C554.7 200 533.3 182 512 171.5C490.7 161 469.3 158 448 158C426.7 158 405.3 161 384 161C362.7 161 341.3 158 320 167.5C298.7 177 277.3 199 256 206.5C234.7 214 213.3 207 192 189.5C170.7 172 149.3 144 128 134C106.7 124 85.3 132 64 144.5C42.7 157 21.3 174 10.7 182.5L0 191Z" fill="#02005b"></path><path d="M0 256L10.7 243.5C21.3 231 42.7 206 64 194.5C85.3 183 106.7 185 128 195.5C149.3 206 170.7 225 192 238C213.3 251 234.7 258 256 250C277.3 242 298.7 219 320 214C341.3 209 362.7 222 384 223.5C405.3 225 426.7 215 448 213.5C469.3 212 490.7 219 512 227.5C533.3 236 554.7 246 576 249.5C597.3 253 618.7 250 640 248.5C661.3 247 682.7 247 704 240C725.3 233 746.7 219 768 205C789.3 191 810.7 177 832 185C853.3 193 874.7 223 896 240.5C917.3 258 938.7 263 949.3 265.5L960 268L960 233L949.3 230C938.7 227 917.3 221 896 204.5C874.7 188 853.3 161 832 154C810.7 147 789.3 160 768 172.5C746.7 185 725.3 197 704 205C682.7 213 661.3 217 640 222C618.7 227 597.3 233 576 229.5C554.7 226 533.3 213 512 201C490.7 189 469.3 178 448 179C426.7 180 405.3 193 384 193C362.7 193 341.3 180 320 185C298.7 190 277.3 213 256 221C234.7 229 213.3 222 192 207C170.7 192 149.3 169 128 161.5C106.7 154 85.3 162 64 175C42.7 188 21.3 206 10.7 215L0 224Z" fill="#04005f"></path><path d="M0 301L10.7 301C21.3 301 42.7 301 64 301C85.3 301 106.7 301 128 301C149.3 301 170.7 301 192 301C213.3 301 234.7 301 256 301C277.3 301 298.7 301 320 301C341.3 301 362.7 301 384 301C405.3 301 426.7 301 448 301C469.3 301 490.7 301 512 301C533.3 301 554.7 301 576 301C597.3 301 618.7 301 640 301C661.3 301 682.7 301 704 301C725.3 301 746.7 301 768 301C789.3 301 810.7 301 832 301C853.3 301 874.7 301 896 301C917.3 301 938.7 301 949.3 301L960 301L960 266L949.3 263.5C938.7 261 917.3 256 896 238.5C874.7 221 853.3 191 832 183C810.7 175 789.3 189 768 203C746.7 217 725.3 231 704 238C682.7 245 661.3 245 640 246.5C618.7 248 597.3 251 576 247.5C554.7 244 533.3 234 512 225.5C490.7 217 469.3 210 448 211.5C426.7 213 405.3 223 384 221.5C362.7 220 341.3 207 320 212C298.7 217 277.3 240 256 248C234.7 256 213.3 249 192 236C170.7 223 149.3 204 128 193.5C106.7 183 85.3 181 64 192.5C42.7 204 21.3 229 10.7 241.5L0 254Z" fill="#060062"></path></svg>